# xmcd
# 
# Track frame offsets:
#     150
#     14582
#     29217
#     42270
#     54287
#     64935
#     79992
#     90372
#     107640
#     120782
#     133132
#     148532
#     162437
# 
# Disc length: 2353
# 
# Revision: 1
# Processed by: cddbd v1.5.2PL0 Copyright (c) Steve Scherf et al.
# Submitted via: fre:ac v1.0.17
# 
DISCID=ae092f0d
DTITLE=Gnarls Barkley - The Odd Couple
DYEAR=2008
DGENRE=R&B
TTITLE0=Charity Case
TTITLE1=Who's Gonna Save My Soul
TTITLE2=Going On
TTITLE3=Run (I'm A Natural Disaster
TTITLE4=Would Be Killer
TTITLE5=Open Book
TTITLE6=Whatever
TTITLE7=Suprise
TTITLE8=No Time Soon
TTITLE9=She Knows
TTITLE10=Blind Mary
TTITLE11=Neighbors
TTITLE12=A Little Better
EXTD=
EXTT0=
EXTT1=
EXTT2=
EXTT3=
EXTT4=
EXTT5=
EXTT6=
EXTT7=
EXTT8=
EXTT9=
EXTT10=
EXTT11=
EXTT12=
PLAYORDER=
